<?xml version="1.0" encoding="UTF-8" standalone="no"?><!DOCTYPE svg PUBLIC "-//W3C//DTD SVG 1.1//EN" "http://www.w3.org/Graphics/SVG/1.1/DTD/svg11.dtd"><svg width="100%" height="100%" viewBox="0 0 2896 544" version="1.1" xmlns="http://www.w3.org/2000/svg" xmlns:xlink="http://www.w3.org/1999/xlink" xml:space="preserve" xmlns:serif="http://www.serif.com/" style="fill-rule:evenodd;clip-rule:evenodd;stroke-linecap:round;stroke-linejoin:round;stroke-miterlimit:1.5;"><g><g><path d="M245.632,278.103c56.064,-8.752 54.32,-16.804 3.535,-24.261c-37.79,-6.397 -73.883,-16.433 -108.414,-29.821c-17.966,-1.587 -33.127,-0.002 -44.783,5.55" style="fill:none;stroke:#000;stroke-width:3.12px;"/><path d="M140.753,224.021l-21.71,-29.347" style="fill:none;stroke:#000;stroke-width:3.12px;"/><path d="M140.753,224.021l290.539,-0.583" style="fill:none;stroke:#000;stroke-width:3.12px;"/><path d="M95.97,229.571c-29.89,50.348 -8.09,51.316 90.034,67.281" style="fill:none;stroke:#000;stroke-width:3.12px;"/><path d="M186.004,296.852c13.633,1.249 14.749,-18.533 61.324,-18.749" style="fill:none;stroke:#000;stroke-width:3.12px;"/><path d="M405.986,313.556c-66.823,5.177 -109.372,1.329 -133.538,-9.353c-24.167,-10.683 -29.95,-28.2 -23.242,-50.361l156.78,59.714Zm-156.78,-59.714c126.61,-17.444 170.134,-4.173 170.292,13.612l-13.494,46.035l-156.798,-59.647Z" style="stroke:#000;stroke-width:3.12px;"/><path d="M481.897,38.93c0.151,1.416 -26.277,98.065 -26.277,98.065c0,-0 -245.028,4.779 -245.369,4.071c-1.944,-2.655 60.805,-74.03 79.589,-89.961c12.128,-10.286 152.442,-11.864 192.057,-12.175Z" style="fill-rule:nonzero;"/><path d="M488.458,30.185c-114.996,1.709 -190.844,2.93 -208.963,20.92" style="fill:none;stroke:#000;stroke-width:3.12px;"/><path d="M279.495,51.105c-47.458,36.348 -98.894,117.576 -160.669,143.45c-85.047,50.76 -75.868,208.053 -105.882,255.869" style="fill:none;stroke:#000;stroke-width:3.12px;"/><path d="M8.297,455.547c0.707,-3.204 2.104,-5.708 3.797,-7.912c2.007,6.326 10.218,5.861 15.267,6.036c5.086,0.177 5.358,-0.177 8.934,-9.558c2.131,-5.311 7.367,-20.888 11.55,-34.518c10.7,-33.986 15.894,-44.784 24.328,-51.157c5.747,-3.125 14.19,-4.564 26.003,-3.894c25.464,1.416 38.667,3.009 68.528,8.497c31.761,5.664 40.785,8.319 44.897,13.453c2.51,3.186 -0.395,4.779 -4.606,2.655c-10.471,-5.842 -28.994,-9.382 -80.261,-15.577c-31.35,-3.895 -31.35,-3.895 -24.991,6.726c4.346,6.904 10.279,9.205 41.189,15.4c19.667,3.895 27.124,5.134 41.424,7.258c7.987,1.239 16.057,2.832 18.121,3.717l3.692,1.416l-9.598,12.037c-11.359,13.984 -15.364,17.701 -23.772,22.658c-10.464,6.018 -22.988,8.496 -37.831,7.08c-46.88,-4.071 -50.537,-4.956 -53.334,-14.338c-1.798,-5.841 0.845,-42.129 4.023,-53.989c3.889,-14.515 -9.441,-9.027 -17.522,7.258c-5.738,11.506 -17.169,54.166 -17.489,64.61c-0.191,10.62 4.136,13.63 20.349,15.223c8.13,0.708 2.418,0.885 -15.012,0.531c-24.816,-0.531 -26.988,-0.354 -18.08,1.416c5.556,1.062 18.466,1.77 28.78,1.593c10.314,-0.177 34.306,-0.531 53.341,-0.885l34.612,-0.354l21.856,-9.559c20.427,-8.85 22.339,-9.382 26.774,-7.434c13.563,6.195 39.321,8.496 134.974,12.214l31.531,1.239l-6.916,27.791l-6.963,27.968l-172.765,-0c-182.677,-0 -178.299,0.177 -182.714,-7.789c-2.012,-3.524 3.769,-31.783 7.884,-49.812Z" style="fill-rule:nonzero;"/><path d="M350.075,383.574l42.035,0.354l-2.337,9.382c-2.005,8.142 -1.724,9.736 -7.921,29.561l-6.517,20.357l-18.728,0.531c-31.085,1.062 -123.998,-4.957 -138.708,-8.851c-3.787,-1.062 -6.982,-3.009 -7.264,-4.602c-0.442,-4.957 24.093,-33.102 34.427,-39.297c4.251,-2.655 10.956,-3.895 27.267,-5.311c31.511,-2.655 32.219,-2.655 77.746,-2.124Z" style="fill-rule:nonzero;"/><path d="M209.83,121.181c-57.479,-1.237 -83.054,14.886 -92.592,36.866c19.06,2.188 33.973,2.502 54.878,0.758l37.714,-37.624Z" style="fill:none;stroke:#000;stroke-width:3.13px;"/><path d="M171.186,159.928l16.003,-15.247l-62.207,-0.224l-7.632,13.171c17.512,1.79 35.575,2.278 53.836,2.3Z"/><path d="M169.944,247.266c-9.872,49.49 -86.851,34.851 -44.679,-11.646" style="fill:none;stroke:#000;stroke-width:3.12px;"/><path d="M209.221,256.339c-9.048,45.358 -79.6,31.941 -40.948,-10.673" style="fill:#fff;stroke:#000;stroke-width:3.12px;"/></g><g transform="matrix(28.7577,0,5.07075,28.7577,-2498.82,-4384.88)"><g transform="matrix(16,0,0,16,76.3463,166.668)"><path d="M0.71,-0.593l-0.058,0.123l-0.16,-0l-0.223,0.47l-0.179,-0l0.222,-0.47l-0.16,-0l0.058,-0.123l0.5,0Z" style="fill:#0094ff;fill-rule:nonzero;"/></g><g transform="matrix(16,0,0,16,85.1463,166.668)"><path d="M0.657,-0.387c-0.009,0.019 -0.022,0.038 -0.039,0.055c-0.018,0.017 -0.037,0.032 -0.058,0.045c-0.021,0.014 -0.044,0.024 -0.068,0.031c-0.024,0.007 -0.047,0.011 -0.07,0.011l-0.186,0l-0.116,0.245l-0.18,-0l0.174,-0.368l0.313,0c0.013,-0 0.027,-0.004 0.04,-0.012c0.013,-0.008 0.023,-0.018 0.028,-0.029l0.009,-0.02c0.005,-0.011 0.005,-0.021 -0,-0.029c-0.006,-0.008 -0.016,-0.012 -0.029,-0.012l-0.312,0l0.058,-0.123l0.366,0c0.023,0 0.043,0.004 0.06,0.011c0.017,0.007 0.03,0.017 0.039,0.031c0.009,0.013 0.013,0.028 0.014,0.045c0.001,0.017 -0.004,0.036 -0.013,0.055l-0.03,0.064Z" style="fill:#002a62;fill-rule:nonzero;"/></g><g transform="matrix(16,0,0,16,94.9063,166.668)"><path d="M0.73,-0.593l0.22,0l-0.281,0.593l-0.18,-0l0.131,-0.275l-0.235,0.275l-0.161,-0l0.026,-0.275l-0.13,0.275l-0.18,-0l0.281,-0.593l0.22,0l-0.036,0.381l0.325,-0.381Z" style="fill:#c2c2c2;fill-rule:nonzero;"/></g><g transform="matrix(16,0,0,16,107.546,166.668)"><path d="M0.62,-0.593c0.023,0 0.043,0.004 0.061,0.011c0.016,0.007 0.029,0.017 0.038,0.03c0.009,0.013 0.014,0.029 0.015,0.046c0.001,0.017 -0.004,0.036 -0.013,0.056l-0.146,0.308c-0.009,0.02 -0.022,0.038 -0.04,0.055c-0.017,0.017 -0.036,0.032 -0.057,0.045c-0.021,0.013 -0.044,0.024 -0.068,0.031c-0.024,0.007 -0.048,0.011 -0.071,0.011l-0.236,-0c-0.022,-0 -0.042,-0.004 -0.059,-0.011c-0.017,-0.007 -0.03,-0.017 -0.039,-0.03c-0.02,-0.028 -0.021,-0.062 -0.002,-0.101l0.146,-0.309c0.009,-0.019 0.022,-0.038 0.04,-0.055c0.017,-0.017 0.036,-0.033 0.057,-0.046c0.021,-0.013 0.044,-0.023 0.068,-0.03c0.023,-0.007 0.047,-0.011 0.07,-0.011l0.236,0Zm-0.299,0.471c0.018,-0 0.036,-0.005 0.053,-0.016c0.018,-0.011 0.031,-0.024 0.038,-0.039l0.112,-0.238c0.007,-0.015 0.007,-0.028 0,-0.039c-0.007,-0.011 -0.02,-0.016 -0.038,-0.016l-0.083,-0c-0.018,-0 -0.036,0.005 -0.053,0.016c-0.018,0.011 -0.031,0.024 -0.038,0.039l-0.113,0.238c-0.007,0.015 -0.007,0.028 0,0.039c0.008,0.011 0.021,0.016 0.039,0.016l0.083,-0Z" style="fill:#c2c2c2;fill-rule:nonzero;"/></g><g transform="matrix(16,0,0,16,117.85,166.668)"><path d="M0.71,-0.593l-0.058,0.123l-0.16,-0l-0.223,0.47l-0.179,-0l0.222,-0.47l-0.16,-0l0.058,-0.123l0.5,0Z" style="fill:#c2c2c2;fill-rule:nonzero;"/></g><g transform="matrix(16,0,0,16,126.65,166.668)"><path d="M0.62,-0.593c0.023,0 0.043,0.004 0.061,0.011c0.016,0.007 0.029,0.017 0.038,0.03c0.009,0.013 0.014,0.029 0.015,0.046c0.001,0.017 -0.004,0.036 -0.013,0.056l-0.146,0.308c-0.009,0.02 -0.022,0.038 -0.04,0.055c-0.017,0.017 -0.036,0.032 -0.057,0.045c-0.021,0.013 -0.044,0.024 -0.068,0.031c-0.024,0.007 -0.048,0.011 -0.071,0.011l-0.236,-0c-0.022,-0 -0.042,-0.004 -0.059,-0.011c-0.017,-0.007 -0.03,-0.017 -0.039,-0.03c-0.02,-0.028 -0.021,-0.062 -0.002,-0.101l0.146,-0.309c0.009,-0.019 0.022,-0.038 0.04,-0.055c0.017,-0.017 0.036,-0.033 0.057,-0.046c0.021,-0.013 0.044,-0.023 0.068,-0.03c0.023,-0.007 0.047,-0.011 0.07,-0.011l0.236,0Zm-0.299,0.471c0.018,-0 0.036,-0.005 0.053,-0.016c0.018,-0.011 0.031,-0.024 0.038,-0.039l0.112,-0.238c0.007,-0.015 0.007,-0.028 0,-0.039c-0.007,-0.011 -0.02,-0.016 -0.038,-0.016l-0.083,-0c-0.018,-0 -0.036,0.005 -0.053,0.016c-0.018,0.011 -0.031,0.024 -0.038,0.039l-0.113,0.238c-0.007,0.015 -0.007,0.028 0,0.039c0.008,0.011 0.021,0.016 0.039,0.016l0.083,-0Z" style="fill:#c2c2c2;fill-rule:nonzero;"/></g><g transform="matrix(16,0,0,16,136.954,166.668)"><path d="M0.657,-0.387c-0.009,0.019 -0.022,0.038 -0.039,0.055c-0.018,0.017 -0.037,0.032 -0.058,0.045c-0.021,0.014 -0.044,0.024 -0.068,0.031c-0.024,0.007 -0.047,0.011 -0.07,0.011l-0.023,0l0.074,0.245l-0.183,-0l-0.067,-0.218l-0.103,0.218l-0.18,-0l0.036,-0.074c0.009,-0.019 0.018,-0.039 0.029,-0.062c0.011,-0.023 0.021,-0.045 0.032,-0.068c0.011,-0.023 0.021,-0.045 0.031,-0.066c0.01,-0.02 0.019,-0.039 0.026,-0.055c0.01,-0.021 0.017,-0.035 0.02,-0.043l0.313,0c0.013,-0 0.027,-0.004 0.04,-0.012c0.013,-0.008 0.023,-0.018 0.028,-0.029l0.009,-0.02c0.005,-0.011 0.005,-0.021 -0,-0.029c-0.006,-0.008 -0.016,-0.012 -0.029,-0.012l-0.312,0l0.058,-0.123l0.366,0c0.023,0 0.043,0.004 0.06,0.011c0.017,0.007 0.03,0.017 0.039,0.031c0.009,0.013 0.013,0.028 0.014,0.045c0.001,0.017 -0.004,0.036 -0.013,0.055l-0.03,0.064Z" style="fill:#c2c2c2;fill-rule:nonzero;"/></g><g transform="matrix(16,0,0,16,146.714,166.668)"><path d="M0.342,-0.47l-0.021,0.045c0.029,0.018 0.06,0.037 0.092,0.058c0.032,0.021 0.061,0.039 0.086,0.056c0.02,0.013 0.032,0.031 0.037,0.054c0.005,0.023 0.001,0.047 -0.012,0.073l-0.014,0.031l-0.073,0.153l-0.497,0c0.017,-0.037 0.03,-0.064 0.039,-0.082c0.009,-0.019 0.015,-0.033 0.02,-0.043c0.005,-0.01 0.009,-0.018 0.012,-0.025c0.003,-0.007 0.008,-0.017 0.015,-0.031l0.179,0l-0.027,0.059l0.138,0l0.033,-0.072c-0.013,-0.008 -0.028,-0.017 -0.045,-0.028c-0.018,-0.011 -0.036,-0.022 -0.054,-0.033c-0.019,-0.011 -0.037,-0.022 -0.054,-0.033c-0.017,-0.011 -0.032,-0.021 -0.045,-0.029c-0.015,-0.009 -0.024,-0.022 -0.027,-0.037c-0.003,-0.016 -0.001,-0.033 0.008,-0.051l0.089,-0.188l0.497,0l-0.088,0.186c-0.005,-0.011 -0.011,-0.022 -0.02,-0.031c-0.007,-0.008 -0.017,-0.015 -0.03,-0.022c-0.013,-0.007 -0.029,-0.01 -0.049,-0.01l-0.189,-0Z" style="fill:#c2c2c2;fill-rule:nonzero;"/></g></g><path d="M540.068,-0l-57.515,-0l-145.586,543.333l57.516,0l145.585,-543.333Z"/></g></svg>